HIERARCHY
ROOT Hips
{
    OFFSET 0.000000 0.000000 0.000000
    CHANNELS 6 Xposition Yposition Zposition Zrotation Xrotation Yrotation
    JOINT Spine
    {
        OFFSET 0.000002 7.901014 -0.000008
        CHANNELS 3 Zrotation Xrotation Yrotation
        JOINT Spine1
        {
            OFFSET 0.000005 20.955456 -0.000012
            CHANNELS 3 Zrotation Xrotation Yrotation
            JOINT Neck
            {
                OFFSET 0.000008 22.118921 -0.000034
                CHANNELS 3 Zrotation Xrotation Yrotation
                JOINT Head
                {
                    OFFSET 0.000001 14.105339 1.902230
                    CHANNELS 3 Zrotation Xrotation Yrotation
                    End Site
                    {
                        OFFSET 0.000000 19.022141 0.000000
                    }
                }
            }
            JOINT LeftShoulder
            {
                OFFSET 3.797831 16.121206 -0.677298
                CHANNELS 3 Zrotation Xrotation Yrotation
                JOINT LeftArm
                {
                    OFFSET 11.576590 -0.000001 -0.000012
                    CHANNELS 3 Zrotation Xrotation Yrotation
                    JOINT LeftForeArm
                    {
                        OFFSET 29.906412 0.000000 -0.000013
                        CHANNELS 3 Zrotation Xrotation Yrotation
                        JOINT LeftHand
                        {
                            OFFSET 24.318325 0.000007 0.000004
                            CHANNELS 3 Zrotation Xrotation Yrotation
                            JOINT LeftHandThumb1
                            {
                                OFFSET 1.987815 -2.258880 3.162413
                                CHANNELS 3 Zrotation Xrotation Yrotation
                                JOINT LeftHandThumb2
                                {
                                    OFFSET 3.002297 0.000003 0.000002
                                    CHANNELS 3 Zrotation Xrotation Yrotation
                                    JOINT LeftHandThumb3
                                    {
                                        OFFSET 2.566087 -0.000008 -0.000007
                                        CHANNELS 3 Zrotation Xrotation Yrotation
                                        End Site
                                        {
                                            OFFSET 2.440626 0.000000 0.000000
                                        }
                                    }
                                }
                            }
                            JOINT LeftHandIndex1
                            {
                                OFFSET 8.131966 0.000004 3.162448
                                CHANNELS 3 Zrotation Xrotation Yrotation
                                JOINT LeftHandIndex2
                                {
                                    OFFSET 4.517758 0.000006 0.000019
                                    CHANNELS 3 Zrotation Xrotation Yrotation
                                    JOINT LeftHandIndex3
                                    {
                                        OFFSET 2.258881 -0.000003 -0.000013
                                        CHANNELS 3 Zrotation Xrotation Yrotation
                                        End Site
                                        {
                                            OFFSET 2.148437 0.000000 0.000000
                                        }
                                    }
                                }
                            }
                            JOINT LeftHandMiddle1
                            {
                                OFFSET 8.131964 0.000004 1.048138
                                CHANNELS 3 Zrotation Xrotation Yrotation
                                JOINT LeftHandMiddle2
                                {
                                    OFFSET 4.969532 0.000000 -0.000012
                                    CHANNELS 3 Zrotation Xrotation Yrotation
                                    JOINT LeftHandMiddle3
                                    {
                                        OFFSET 2.710657 0.000001 0.000003
                                        CHANNELS 3 Zrotation Xrotation Yrotation
                                        End Site
                                        {
                                            OFFSET 2.578118 0.000000 0.000000
                                        }
                                    }
                                }
                            }
                            JOINT LeftHandRing1
                            {
                                OFFSET 7.680191 0.000001 -1.048140
                                CHANNELS 3 Zrotation Xrotation Yrotation
                                JOINT LeftHandRing2
                                {
                                    OFFSET 4.517759 0.000003 0.000020
                                    CHANNELS 3 Zrotation Xrotation Yrotation
                                    JOINT LeftHandRing3
                                    {
                                        OFFSET 2.258881 -0.000001 -0.000014
                                        CHANNELS 3 Zrotation Xrotation Yrotation
                                        End Site
                                        {
                                            OFFSET 2.148437 0.000000 0.000000
                                        }
                                    }
                                }
                            }
                            JOINT LeftHandPinky1
                            {
                                OFFSET 7.228409 0.000003 -3.162421
                                CHANNELS 3 Zrotation Xrotation Yrotation
                                JOINT LeftHandPinky2
                                {
                                    OFFSET 3.614206 0.000002 -0.000013
                                    CHANNELS 3 Zrotation Xrotation Yrotation
                                    JOINT LeftHandPinky3
                                    {
                                        OFFSET 1.807102 -0.000001 0.000017
                                        CHANNELS 3 Zrotation Xrotation Yrotation
                                        End Site
                                        {
                                            OFFSET 1.718745 0.000000 0.000000
                                        }
                                    }
                                }
                            }
                        }
                    }
                }
            }
            JOINT RightShoulder
            {
                OFFSET -3.797831 16.121195 -0.677300
                CHANNELS 3 Zrotation Xrotation Yrotation
                JOINT RightArm
                {
                    OFFSET -11.576584 0.000002 -0.000000
                    CHANNELS 3 Zrotation Xrotation Yrotation
                    JOINT RightForeArm
                    {
                        OFFSET -29.906401 0.000003 0.000007
                        CHANNELS 3 Zrotation Xrotation Yrotation
                        JOINT RightHand
                        {
                            OFFSET -24.318319 0.000002 0.000006
                            CHANNELS 3 Zrotation Xrotation Yrotation
                            JOINT RightHandThumb1
                            {
                                OFFSET -1.987803 -2.258882 3.162428
                                CHANNELS 3 Zrotation Xrotation Yrotation
                                JOINT RightHandThumb2
                                {
                                    OFFSET -3.002286 0.000009 -0.000002
                                    CHANNELS 3 Zrotation Xrotation Yrotation
                                    JOINT RightHandThumb3
                                    {
                                        OFFSET -2.566107 -0.000001 0.000003
                                        CHANNELS 3 Zrotation Xrotation Yrotation
                                        End Site
                                        {
                                            OFFSET -2.440626 0.000000 0.000000
                                        }
                                    }
                                }
                            }
                            JOINT RightHandIndex1
                            {
                                OFFSET -8.131948 0.000001 3.162436
                                CHANNELS 3 Zrotation Xrotation Yrotation
                                JOINT RightHandIndex2
                                {
                                    OFFSET -4.517740 0.000001 0.000001
                                    CHANNELS 3 Zrotation Xrotation Yrotation
                                    JOINT RightHandIndex3
                                    {
                                        OFFSET -2.258870 0.000000 0.000000
                                        CHANNELS 3 Zrotation Xrotation Yrotation
                                        End Site
                                        {
                                            OFFSET -2.148437 0.000000 0.000000
                                        }
                                    }
                                }
                            }
                            JOINT RightHandMiddle1
                            {
                                OFFSET -8.131986 -0.000009 1.048120
                                CHANNELS 3 Zrotation Xrotation Yrotation
                                JOINT RightHandMiddle2
                                {
                                    OFFSET -4.969533 0.000001 0.000001
                                    CHANNELS 3 Zrotation Xrotation Yrotation
                                    JOINT RightHandMiddle3
                                    {
                                        OFFSET -2.710663 0.000001 0.000001
                                        CHANNELS 3 Zrotation Xrotation Yrotation
                                        End Site
                                        {
                                            OFFSET -2.578118 0.000000 0.000000
                                        }
                                    }
                                }
                            }
                            JOINT RightHandRing1
                            {
                                OFFSET -7.680199 -0.000003 -1.048116
                                CHANNELS 3 Zrotation Xrotation Yrotation
                                JOINT RightHandRing2
                                {
                                    OFFSET -4.517741 0.000001 0.000001
                                    CHANNELS 3 Zrotation Xrotation Yrotation
                                    JOINT RightHandRing3
                                    {
                                        OFFSET -2.258870 0.000000 0.000001
                                        CHANNELS 3 Zrotation Xrotation Yrotation
                                        End Site
                                        {
                                            OFFSET -2.148437 0.000000 0.000000
                                        }
                                    }
                                }
                            }
                            JOINT RightHandPinky1
                            {
                                OFFSET -7.228399 0.000005 -3.162425
                                CHANNELS 3 Zrotation Xrotation Yrotation
                                JOINT RightHandPinky2
                                {
                                    OFFSET -3.614201 -0.000004 -0.000002
                                    CHANNELS 3 Zrotation Xrotation Yrotation
                                    JOINT RightHandPinky3
                                    {
                                        OFFSET -1.807124 -0.000005 -0.000003
                                        CHANNELS 3 Zrotation Xrotation Yrotation
                                        End Site
                                        {
                                            OFFSET -1.718745 0.000000 0.000000
                                        }
                                    }
                                }
                            }
                        }
                    }
                }
            }
        }
    }
    JOINT LeftUpLeg
    {
        OFFSET 9.511073 0.000001 -0.000010
        CHANNELS 3 Zrotation Xrotation Yrotation
        JOINT LeftLeg
        {
            OFFSET 0.000001 -43.875637 0.000009
            CHANNELS 3 Zrotation Xrotation Yrotation
            JOINT LeftFoot
            {
                OFFSET 0.000002 -35.354156 -0.000001
                CHANNELS 3 Zrotation Xrotation Yrotation
                JOINT LeftToeBase
                {
                    OFFSET -0.000003 -6.182194 14.266616
                    CHANNELS 3 Zrotation Xrotation Yrotation
                    End Site
                    {
                        OFFSET 0.000000 0.000000 3.804428
                    }
                }
            }
        }
    }
    JOINT RightUpLeg
    {
        OFFSET -9.511073 -0.000001 0.000010
        CHANNELS 3 Zrotation Xrotation Yrotation
        JOINT RightLeg
        {
            OFFSET 0.000000 -43.875641 -0.000001
            CHANNELS 3 Zrotation Xrotation Yrotation
            JOINT RightFoot
            {
                OFFSET 0.000001 -35.354156 -0.000013
                CHANNELS 3 Zrotation Xrotation Yrotation
                JOINT RightToeBase
                {
                    OFFSET -0.000003 -6.182194 14.266583
                    CHANNELS 3 Zrotation Xrotation Yrotation
                    End Site
                    {
                        OFFSET 0.000000 0.000000 3.804428
                    }
                }
            }
        }
    }
}
MOTION
Frames:    4
Frame Time:    0.002778
35.962772    91.826485    605.927673    5.448114    -25.987013    -179.380234    -0.417671    8.612773    -14.911211    -2.088342    8.607361    -14.661081    4.235347    3.166237    0.641850    4.235348    3.166234    0.641849    8.701485    -4.600297    -7.065635    -5.427292    3.660874    -39.515915    0.270331    -15.655029    2.445364    -4.237978    -0.595369    5.884249    47.448215    38.866428    -34.355030    -34.999992    0.000003    0.000002    -0.000000    0.000000    -0.000000    -0.000004    10.000001    0.000002    -0.000000    0.000000    -0.000000    -0.000000    0.000000    -0.000000    -0.000000    0.000000    -0.000000    -0.000000    0.000000    -0.000000    -0.000000    0.000000    -0.000000    -0.000000    0.000000    -0.000000    -0.000000    0.000000    -0.000000    -0.000000    0.000000    -0.000000    0.000004    -10.000007    0.000006    -0.000000    0.000000    -0.000000    -0.000000    0.000000    -0.000000    -2.797806    -1.213998    5.953681    66.590523    10.900450    12.629337    -7.120818    23.001972    77.411934    -62.063251    13.958156    -7.146985    -47.448215    38.866432    34.355038    35.000000    -0.000005    -0.000003    -0.000000    0.000000    -0.000000    0.000001    9.999999    -0.000007    -0.000000    0.000000    -0.000000    -0.000000    0.000000    -0.000000    -0.000000    0.000000    -0.000000    -0.000000    0.000000    -0.000000    -0.000000    0.000000    -0.000000    -0.000000    0.000000    -0.000000    -0.000000    0.000000    -0.000000    -0.000000    0.000000    -0.000000    -0.000000    -9.999999    -0.000003    -0.000000    0.000000    -0.000000    -0.000000    0.000000    -0.000000    24.005102    -34.508011    8.599672    0.000000    34.978554    -0.000001    -18.903088    -19.099415    17.615095    -0.000000    -0.197737    0.000003    -6.624627    -48.415386    -1.198006    -0.000000    28.812677    -0.000000    6.634533    -0.632364    1.291358    -0.000000    -2.830252    0.000001    
35.960041    91.834900    605.903076    5.416445    -25.893063    -179.361130    -0.417910    8.624949    -14.857806    -2.089536    8.619525    -14.607189    4.261674    3.190924    0.544753    4.261672    3.190933    0.544744    8.723191    -4.580723    -6.982441    -5.913060    3.470304    -39.754562    0.285632    -15.811944    2.293396    -3.628920    -0.524405    5.738723    47.448200    38.866440    -34.355000    -34.999992    -0.000003    -0.000001    -0.000000    0.000000    -0.000000    0.000000    9.999994    0.000037    -0.000000    0.000000    -0.000000    -0.000000    0.000000    -0.000000    -0.000000    0.000000    -0.000000    -0.000000    0.000000    -0.000000    -0.000000    0.000000    -0.000000    -0.000000    0.000000    -0.000000    -0.000000    0.000000    -0.000000    -0.000000    0.000000    -0.000000    -0.000003    -9.999995    0.000001    -0.000000    0.000000    -0.000000    -0.000000    0.000000    -0.000000    -2.859025    -1.183446    5.918537    66.660851    10.848288    12.591485    -7.127009    23.021452    77.459869    -62.064209    13.966710    -7.151103    -47.448208    38.866421    34.355030    34.999996    -0.000004    -0.000001    -0.000000    0.000000    -0.000000    0.000000    10.000001    -0.000001    -0.000000    0.000000    -0.000000    -0.000000    0.000000    -0.000000    -0.000000    0.000000    -0.000000    -0.000000    0.000000    -0.000000    -0.000000    0.000000    -0.000000    -0.000000    0.000000    -0.000000    -0.000000    0.000000    -0.000000    -0.000000    0.000000    -0.000000    0.000000    -10.000001    0.000001    -0.000000    0.000000    -0.000000    -0.000000    0.000000    -0.000000    23.925882    -34.379627    8.565547    0.000002    34.889359    0.000000    -18.866852    -19.056709    17.591772    0.000000    -0.193299    -0.000005    -6.667060    -48.291412    -1.209159    -0.000000    28.806999    -0.000000    6.616516    -0.673414    1.273549    -0.000000    -2.826101    -0.000000    
35.961857    91.843819    605.884705    5.395170    -25.812128    -179.343536    -0.417507    8.629298    -14.812773    -2.087516    8.623875    -14.562263    4.294274    3.218704    0.479870    4.294271    3.218704    0.479872    8.710832    -4.551132    -6.919720    -6.331307    3.306233    -39.935707    0.277243    -15.994673    2.109582    -3.132223    -0.468154    5.595716    47.448231    38.866447    -34.355045    -34.999992    0.000003    -0.000011    -0.000000    0.000000    -0.000000    0.000000    10.000014    -0.000001    -0.000000    0.000000    -0.000000    -0.000000    0.000000    -0.000000    -0.000000    0.000000    -0.000000    -0.000000    0.000000    -0.000000    -0.000000    0.000000    -0.000000    -0.000000    0.000000    -0.000000    -0.000000    0.000000    -0.000000    -0.000000    0.000000    -0.000000    0.000007    -10.000001    0.000002    -0.000000    0.000000    -0.000000    -0.000000    0.000000    -0.000000    -2.903774    -1.171588    5.891017    66.704773    10.821675    12.568419    -7.085767    23.047079    77.471092    -61.994637    13.994774    -7.186880    -47.448215    38.866421    34.355038    34.999996    -0.000004    -0.000002    -0.000000    0.000000    -0.000000    0.000001    10.000001    -0.000001    -0.000000    0.000000    -0.000000    -0.000000    0.000000    -0.000000    -0.000000    0.000000    -0.000000    -0.000000    0.000000    -0.000000    -0.000000    0.000000    -0.000000    -0.000000    0.000000    -0.000000    -0.000000    0.000000    -0.000000    -0.000000    0.000000    -0.000000    0.000002    -9.999999    0.000001    -0.000000    0.000000    -0.000000    -0.000000    0.000000    -0.000000    23.866798    -34.277401    8.528471    -0.000002    34.819450    0.000000    -18.846716    -19.013943    17.584215    0.000000    -0.193923    0.000001    -6.694091    -48.189404    -1.216933    -0.000002    28.803236    0.000001    6.607615    -0.695835    1.262954    -0.000000    -2.819162    0.000000    
35.966427    91.853462    605.880066    5.378075    -25.768394    -179.320831    -0.415939    8.603358    -14.777269    -2.079681    8.598001    -14.528447    4.312024    3.271801    0.438784    4.312022    3.271801    0.438780    8.603630    -4.507165    -6.886996    -6.591683    3.233321    -40.050884    0.267487    -16.104366    1.867676    -2.972913    -0.448759    5.504350    47.448196    38.866428    -34.355022    -35.000000    0.000002    -0.000007    -0.000000    0.000000    -0.000000    0.000000    10.000005    -0.000004    -0.000000    0.000000    -0.000000    -0.000000    0.000000    -0.000000    -0.000000    0.000000    -0.000000    -0.000000    0.000000    -0.000000    -0.000000    0.000000    -0.000000    -0.000000    0.000000    -0.000000    -0.000000    0.000000    -0.000000    -0.000000    0.000000    -0.000000    0.000000    -9.999990    0.000002    -0.000000    0.000000    -0.000000    -0.000000    0.000000    -0.000000    -2.930294    -1.154244    5.889575    66.738510    10.805472    12.548839    -7.088152    23.041170    77.498558    -62.009422    14.001752    -7.186038    -47.448219    38.866428    34.355042    35.000008    -0.000005    -0.000003    -0.000000    0.000000    -0.000000    -0.000001    10.000001    0.000008    -0.000000    0.000000    -0.000000    -0.000000    0.000000    -0.000000    -0.000000    0.000000    -0.000000    -0.000000    0.000000    -0.000000    -0.000000    0.000000    -0.000000    -0.000000    0.000000    -0.000000    -0.000000    0.000000    -0.000000    -0.000000    0.000000    -0.000000    0.000001    -9.999998    0.000006    -0.000000    0.000000    -0.000000    -0.000000    0.000000    -0.000000    23.824669    -34.235409    8.495242    -0.000004    34.784294    0.000001    -18.831398    -18.965914    17.583490    0.000000    -0.188728    -0.000001    -6.723524    -48.140663    -1.233554    0.000000    28.809319    -0.000001    6.601286    -0.692874    1.244925    -0.000001    -2.817882    -0.000000    
